<svg xmlns="http://www.w3.org/2000/svg" width="100" height="100" viewBox="0 0 100 100" fill="none">
  <path d="M76.5762 54.2424C76.5762 54.7575 76.5635 55.2726 76.5383 55.7876C76.5131 56.3027 76.4753 56.8167 76.4248 57.3296C76.3739 57.8431 76.3106 58.3547 76.2349 58.8644C76.1593 59.3741 76.0713 59.8819 75.9709 60.3878C75.8706 60.8932 75.7576 61.396 75.6321 61.896C75.5065 62.3961 75.3692 62.8929 75.22 63.3865C75.0703 63.8801 74.9093 64.3694 74.7371 64.8544C74.5649 65.3395 74.3795 65.8202 74.181 66.2966C73.9835 66.7731 73.7745 67.2444 73.554 67.7106C73.3335 68.1769 73.1022 68.638 72.8602 69.0941C72.6166 69.5485 72.3626 69.9968 72.0981 70.4389C71.8335 70.881 71.5578 71.3164 71.2707 71.7451C70.9842 72.1743 70.6872 72.5957 70.3797 73.0094C70.0723 73.4231 69.7555 73.8287 69.4292 74.2262C69.1014 74.6249 68.7647 75.0152 68.4192 75.3972C68.0736 75.7792 67.7182 76.1524 67.3528 76.5167C66.9884 76.881 66.6153 77.2364 66.2332 77.583C65.8512 77.9296 65.4609 78.2655 65.0622 78.5906C64.6635 78.9174 64.2574 79.2342 63.8437 79.5411C63.43 79.848 63.0085 80.1447 62.5793 80.4312C62.1501 80.7177 61.7146 80.9937 61.273 81.2593C60.8315 81.5249 60.3829 81.7787 59.9274 82.0207C59.4724 82.2637 59.012 82.4955 58.5463 82.716C58.0805 82.9365 57.6094 83.1452 57.133 83.3421C56.6565 83.5401 56.1755 83.7257 55.6899 83.899C55.2043 84.0723 54.715 84.2333 54.2219 84.3819C53.7288 84.5316 53.2322 84.6692 52.7322 84.7948C52.2321 84.9203 51.7293 85.0346 51.2239 85.1376C50.7185 85.2385 50.2106 85.3265 49.7003 85.4016C49.1901 85.4767 48.6785 85.5403 48.1655 85.5923C47.652 85.6422 47.138 85.6801 46.6235 85.7058C46.1089 85.7316 45.5935 85.7442 45.0774 85.7436C44.5623 85.7436 44.0472 85.731 43.5321 85.7058C43.017 85.6806 42.503 85.6428 41.99 85.5923C41.4766 85.5414 40.9649 85.4781 40.4552 85.4024C39.9455 85.3268 39.4376 85.2388 38.9317 85.1384C38.4262 85.0381 37.9235 84.9252 37.4234 84.7996C36.9233 84.6741 36.4262 84.5359 35.9321 84.3851C35.439 84.2365 34.9496 84.0756 34.464 83.9023C33.9785 83.729 33.4977 83.5433 33.0218 83.3453C32.5453 83.1484 32.0739 82.9397 31.6077 82.7192C31.1414 82.4987 30.681 82.2669 30.2266 82.0239C29.7721 81.7808 29.3238 81.5271 28.8817 81.2626C28.4396 80.998 28.0042 80.722 27.5755 80.4344C27.1462 80.149 26.7248 79.8523 26.3111 79.5443C25.8974 79.2363 25.4912 78.9185 25.0926 78.5906C24.6939 78.2634 24.3038 77.9267 23.9223 77.5806C23.5408 77.2346 23.1674 76.8791 22.802 76.5143C22.4371 76.15 22.0819 75.7768 21.7364 75.3948C21.3909 75.0128 21.0542 74.6225 20.7263 74.2238C20.399 73.8257 20.0819 73.4193 19.775 73.0046C19.4681 72.5898 19.1714 72.1684 18.8849 71.7402C18.5984 71.311 18.3226 70.8756 18.0575 70.4341C17.7924 69.9925 17.5384 69.5458 17.2953 69.0941C17.0523 68.6396 16.8205 68.1793 16.5999 67.7131C16.3794 67.2468 16.1702 66.7747 15.9722 66.2966C15.7742 65.8207 15.5885 65.34 15.4152 64.8544C15.2419 64.3689 15.081 63.8796 14.9323 63.3865C14.7837 62.8929 14.6463 62.3961 14.5203 61.896C14.3942 61.396 14.2812 60.8932 14.1814 60.3878C14.0811 59.8824 13.9931 59.3746 13.9174 58.8644C13.8418 58.3541 13.7787 57.8425 13.7283 57.3296C13.6779 56.8172 13.6398 56.3032 13.614 55.7876C13.5883 55.272 13.5757 54.757 13.5762 54.2424C13.5762 53.7263 13.5888 53.211 13.614 52.6964C13.6392 52.1819 13.6773 51.6679 13.7283 51.1544C13.7782 50.6421 13.8412 50.1308 13.9174 49.6205C13.9936 49.1103 14.0816 48.6024 14.1814 48.097C14.2823 47.5916 14.3952 47.0886 14.5203 46.5881C14.6453 46.0875 14.7826 45.5909 14.9323 45.0984C15.082 44.6048 15.243 44.1155 15.4152 43.6304C15.5875 43.1454 15.7731 42.6644 15.9722 42.1874C16.1696 41.711 16.3783 41.2399 16.5983 40.7742C16.8183 40.3085 17.0507 39.8495 17.2953 39.3972C17.5384 38.9428 17.7924 38.4943 18.0575 38.0516C18.3226 37.609 18.5984 37.1722 18.8849 36.7414C19.1703 36.3122 19.467 35.8907 19.775 35.4771C20.083 35.0634 20.4001 34.6573 20.7263 34.2586C21.0531 33.8605 21.3898 33.4702 21.7364 33.0877C22.083 32.7051 22.4382 32.332 22.802 31.9682C23.1663 31.6039 23.5398 31.2484 23.9223 30.9018C24.3049 30.5552 24.695 30.2186 25.0926 29.8918C25.4912 29.5651 25.8977 29.248 26.3119 28.9406C26.7261 28.6331 27.1476 28.3362 27.5763 28.0497C28.0055 27.7631 28.4409 27.4874 28.8825 27.2223C29.3241 26.9573 29.7724 26.7032 30.2274 26.4602C30.6819 26.2182 31.1422 25.9867 31.6085 25.7656C32.0748 25.5446 32.5461 25.3356 33.0226 25.1387C33.498 24.9413 33.9787 24.7559 34.4648 24.5826C34.951 24.4093 35.4403 24.2483 35.9329 24.0997C36.426 23.95 36.9228 23.8127 37.4234 23.6877C37.924 23.5627 38.4268 23.4497 38.9317 23.3489C39.4371 23.2485 39.945 23.1603 40.4552 23.0841C40.9655 23.0079 41.4771 22.9449 41.99 22.895C42.503 22.8445 43.017 22.8067 43.5321 22.7815C44.0472 22.7563 44.5623 22.7437 45.0774 22.7437C45.593 22.7437 46.1084 22.7563 46.6235 22.7815C47.1386 22.8067 47.6526 22.844 48.1655 22.8933C48.6785 22.9438 49.1898 23.0068 49.6995 23.0825C50.2093 23.1581 50.7174 23.2464 51.2239 23.3472C51.7293 23.4481 52.2323 23.5611 52.733 23.6861C53.2336 23.8111 53.7301 23.9484 54.2227 24.0981C54.7158 24.2478 55.2051 24.4088 55.6907 24.581C56.1763 24.7532 56.6573 24.9386 57.1338 25.1371C57.6102 25.3345 58.0813 25.5435 58.5471 25.764C59.0128 25.9846 59.4732 26.2161 59.9282 26.4586C60.3832 26.7016 60.8317 26.9557 61.2739 27.2207C61.716 27.4858 62.1511 27.7621 62.5793 28.0497C63.0085 28.3362 63.43 28.6329 63.8437 28.9398C64.2574 29.2466 64.6635 29.5637 65.0622 29.891C65.4603 30.2188 65.8507 30.5555 66.2332 30.901C66.6158 31.2466 66.989 31.602 67.3528 31.9674C67.7171 32.3322 68.0726 32.7054 68.4192 33.0868C68.7658 33.4683 69.1025 33.8586 69.4292 34.2578C69.756 34.6565 70.0728 35.0626 70.3797 35.4763C70.6867 35.8899 70.9836 36.3117 71.2707 36.7414C71.5572 37.1706 71.833 37.606 72.0981 38.0476C72.3631 38.4892 72.6172 38.9377 72.8602 39.3932C73.1033 39.8482 73.3348 40.3085 73.5548 40.7742C73.7748 41.2399 73.9838 41.711 74.1818 42.1874C74.3792 42.6639 74.5646 43.1449 74.7379 43.6304C74.9112 44.116 75.0722 44.6053 75.2208 45.0984C75.3705 45.592 75.5079 46.0885 75.6329 46.5881C75.7579 47.0876 75.8709 47.5906 75.9717 48.097C76.0726 48.6024 76.1606 49.1103 76.2357 49.6205C76.3108 50.1308 76.3741 50.6421 76.4257 51.1544C76.4761 51.6679 76.5139 52.1819 76.5391 52.6964C76.5644 53.211 76.5767 53.7263 76.5762 54.2424Z" fill="#1C2025"/>
  <path fill-rule="evenodd" clip-rule="evenodd" d="M29.3539 22.8663L30.8569 15.1016L30.3655 15L28.8633 22.7647L29.3539 22.8663Z" fill="#2D323E"/>
  <path fill-rule="evenodd" clip-rule="evenodd" d="M16.1718 17.2702L21.8898 25.7552L22.2994 25.4599L16.583 16.9731L16.1718 17.2702ZM9 29.7705L17.8944 32.3816L18.0311 31.8831L9.14006 29.2728L9 29.7705Z" fill="#2D323E"/>
  <path d="M31.1152 61.1196V49.2143C31.1163 48.6664 31.3275 48.1412 31.7026 47.7538C32.0776 47.3664 32.5859 47.1484 33.1162 47.1475H38.1257C38.6571 47.1477 39.1667 47.366 39.5424 47.7544C39.9181 48.1428 40.1292 48.6694 40.1292 49.2186V61.1196C40.1292 61.3915 40.0774 61.6607 39.9767 61.9119C39.876 62.163 39.7284 62.3913 39.5424 62.5835C39.3563 62.7757 39.1355 62.9282 38.8924 63.0323C38.6493 63.1363 38.3888 63.1899 38.1257 63.1899H33.1162C32.5853 63.1892 32.0764 62.9708 31.7012 62.5826C31.326 62.1944 31.1152 61.6682 31.1152 61.1196Z" fill="#181A1F"/>
  <path d="M56.1582 61.1214V37.31C56.1582 37.0381 56.21 36.7689 56.3107 36.5178C56.4114 36.2666 56.559 36.0384 56.745 35.8461C56.931 35.6539 57.1519 35.5014 57.395 35.3973C57.638 35.2933 57.8986 35.2397 58.1617 35.2397H63.1711C63.4342 35.2397 63.6948 35.2933 63.9378 35.3973C64.1809 35.5014 64.4018 35.6539 64.5878 35.8461C64.7738 36.0384 64.9214 36.2666 65.0221 36.5178C65.1228 36.7689 65.1746 37.0381 65.1746 37.31V61.1214C65.1746 61.3932 65.1228 61.6625 65.0221 61.9136C64.9214 62.1648 64.7738 62.393 64.5878 62.5853C64.4018 62.7775 64.1809 62.93 63.9378 63.034C63.6948 63.1381 63.4342 63.1916 63.1711 63.1916H58.1617C57.8986 63.1916 57.638 63.1381 57.395 63.034C57.1519 62.93 56.931 62.7775 56.745 62.5853C56.559 62.393 56.4114 62.1648 56.3107 61.9136C56.21 61.6625 56.1582 61.3932 56.1582 61.1214Z" fill="#181A1F"/>
  <path d="M43.6367 61.1222V43.0027C43.6369 42.4535 43.8482 41.9269 44.224 41.5385C44.5998 41.1501 45.1095 40.9319 45.641 40.9316H50.6497C50.9132 40.9312 51.1742 40.9844 51.4178 41.0883C51.6614 41.1922 51.8828 41.3446 52.0693 41.537C52.2558 41.7294 52.4038 41.9578 52.5049 42.2093C52.6059 42.4608 52.6579 42.7304 52.658 43.0027V61.1222C52.6578 61.6713 52.4466 62.1979 52.0707 62.5861C51.6949 62.9743 51.1852 63.1924 50.6538 63.1924H45.641C45.1096 63.1924 44.5999 62.9743 44.2241 62.5861C43.8482 62.1979 43.6369 61.6713 43.6367 61.1222Z" fill="#181A1F"/>
  <path fill-rule="evenodd" clip-rule="evenodd" d="M59.584 63.8291H14.5762V70.7365C14.5762 71.9578 15.0457 73.129 15.8814 73.9926C16.7171 74.8562 17.8506 75.3414 19.0325 75.3414H63.8975V74.8783C62.7408 74.8402 61.6439 74.3385 60.8388 73.4795C60.0338 72.6205 59.5837 71.4715 59.584 70.2757V63.8291Z" fill="#798290"/>
  <path d="M16.8552 38.6134L23.3947 67.2741L16.8552 38.6134ZM16.8552 38.6134L45.8954 31.6245L52.4331 60.274C52.4331 60.274 52.4331 60.274 52.4331 60.2741C52.553 60.7999 52.5713 61.3452 52.487 61.8785C52.4027 62.4119 52.2176 62.9221 51.9427 63.38C51.6679 63.8378 51.309 64.234 50.8873 64.5466C50.4657 64.8591 49.9894 65.082 49.486 65.2032L28.1535 70.3373C27.1348 70.5817 26.063 70.3995 25.1715 69.828C24.2794 69.2562 23.6385 68.3392 23.3948 67.2744L16.8552 38.6134Z" fill="#798290" stroke="#465580"/>
  <path d="M25.7854 26.9946H68.9417V70.7397C68.9417 71.961 68.4722 73.1323 67.6365 73.9959C66.8008 74.8595 65.6673 75.3446 64.4854 75.3446H30.2395C29.0576 75.3446 27.9242 74.8595 27.0884 73.9959C26.2527 73.1323 25.7832 71.961 25.7832 70.7397L25.7854 26.9946Z" fill="#24272C"/>
  <path opacity="0.33" d="M33 44L58 41" stroke="#798290"/>
  <path opacity="0.33" d="M33 55L59 56" stroke="#798290"/>
  <path fill-rule="evenodd" clip-rule="evenodd" d="M25.7854 26.9946H68.9417V70.7397C68.9417 71.961 68.4722 73.1323 67.6365 73.9959C66.8008 74.8595 65.6673 75.3446 64.4854 75.3446H30.2395C29.0576 75.3446 27.9242 74.8595 27.0884 73.9959C26.2527 73.1323 25.7832 71.961 25.7832 70.7397L25.7854 26.9946ZM26.2313 27.4547H68.4958V70.7397C68.4958 71.838 68.0736 72.8913 67.322 73.6679C66.5705 74.4445 65.5511 74.8808 64.4883 74.8808H30.2424C29.1796 74.8808 28.1603 74.4445 27.4087 73.6679C26.6572 72.8913 26.235 71.838 26.235 70.7397L26.2313 27.4547Z" fill="#465580"/>
  <path fill-rule="evenodd" clip-rule="evenodd" d="M59.584 63.8291H14.5762V70.7365C14.5762 71.9578 15.0457 73.129 15.8814 73.9926C16.7171 74.8562 17.8506 75.3414 19.0325 75.3414H63.8975V74.8783C62.7408 74.8402 61.6439 74.3385 60.8388 73.4795C60.0338 72.6205 59.5837 71.4715 59.584 70.2757V63.8291ZM15.0221 70.7365V64.2899H59.1358V70.2757C59.1361 71.2453 59.4054 72.1945 59.9119 73.0107C60.4184 73.8269 61.1409 74.4758 61.9935 74.8806H19.0325C17.9696 74.8806 16.9503 74.4443 16.1988 73.6677C15.4472 72.8911 15.025 71.8378 15.025 70.7395L15.0221 70.7365Z" fill="#465580"/>
  <path d="M27 64.2983H21L21.5 74.8828H31V64.2983H27Z" fill="#31353A"/>
  <ellipse cx="63.5499" cy="49.5504" rx="9.10263" ry="9.10263" fill="#181A1F"/>
  <path fill-rule="evenodd" clip-rule="evenodd" d="M74.4414 56.7362C74.3593 56.6597 74.3375 56.5352 74.3964 56.4398C77.3632 51.6342 76.6331 45.2483 72.3446 41.2492C67.459 36.6933 59.8051 36.9606 55.2492 41.8462C50.6933 46.7318 50.9606 54.3857 55.8462 58.9416C60.1346 62.9406 66.5559 63.2235 71.1428 59.9288C71.2339 59.8634 71.3596 59.8765 71.4417 59.953L79.4837 67.4523C80.372 68.2807 81.7636 68.2321 82.5919 67.3438C83.4203 66.4555 83.3717 65.0639 82.4834 64.2355L74.4414 56.7362ZM69.5025 44.2972C72.7047 47.2834 72.8799 52.3 69.8938 55.5023C66.9076 58.7045 61.8909 58.8797 58.6887 55.8936C55.4864 52.9074 55.3112 47.8907 58.2974 44.6885C61.2835 41.4862 66.3002 41.3111 69.5025 44.2972Z" fill="#798290"/>
  <path d="M79.4837 67.4523L79.6542 67.2695L79.4837 67.4523ZM82.4834 64.2355L82.6539 64.0527L82.4834 64.2355ZM58.6887 55.8936L58.8592 55.7107L58.6887 55.8936ZM58.2974 44.6885L58.4802 44.859L58.2974 44.6885ZM71.1428 59.9288L70.9969 59.7258L71.1428 59.9288ZM74.3964 56.4398L74.1837 56.3085L74.3964 56.4398ZM74.6091 56.5711C77.6373 51.6662 76.8925 45.1483 72.5151 41.0664L72.1741 41.432C76.3738 45.3482 77.0891 51.6023 74.1837 56.3085L74.6091 56.5711ZM72.5151 41.0664C67.5285 36.4163 59.7165 36.6891 55.0664 41.6757L55.4321 42.0167C59.8938 37.232 67.3895 36.9703 72.1741 41.432L72.5151 41.0664ZM55.0664 41.6757C50.4163 46.6623 50.6891 54.4744 55.6757 59.1244L56.0167 58.7588C51.2321 54.297 50.9703 46.8013 55.4321 42.0167L55.0664 41.6757ZM55.6757 59.1244C60.053 63.2063 66.6069 63.4947 71.2886 60.1319L70.9969 59.7258C66.505 62.9523 60.2163 62.6749 56.0167 58.7588L55.6757 59.1244ZM79.6542 67.2695L71.6122 59.7702L71.2712 60.1359L79.3132 67.6351L79.6542 67.2695ZM82.4091 67.1733C81.6749 67.9606 80.4415 68.0037 79.6542 67.2695L79.3132 67.6351C80.3025 68.5577 81.8523 68.5035 82.7748 67.5143L82.4091 67.1733ZM82.3129 64.4183C83.1002 65.1525 83.1433 66.386 82.4091 67.1733L82.7748 67.5143C83.6973 66.525 83.6432 64.9752 82.6539 64.0527L82.3129 64.4183ZM74.2709 56.9191L82.3129 64.4183L82.6539 64.0527L74.6119 56.5534L74.2709 56.9191ZM70.0766 55.6728C73.1569 52.3696 72.9762 47.1947 69.673 44.1144L69.332 44.48C72.4332 47.372 72.6029 52.2305 69.7109 55.3318L70.0766 55.6728ZM58.5182 56.0764C61.8214 59.1567 66.9963 58.976 70.0766 55.6728L69.7109 55.3318C66.8189 58.4331 61.9604 58.6027 58.8592 55.7107L58.5182 56.0764ZM58.1145 44.518C55.0342 47.8212 55.2149 52.9961 58.5182 56.0764L58.8592 55.7107C55.7579 52.8188 55.5882 47.9603 58.4802 44.859L58.1145 44.518ZM69.673 44.1144C66.3697 41.0341 61.1948 41.2148 58.1145 44.518L58.4802 44.859C61.3722 41.7577 66.2307 41.5881 69.332 44.48L69.673 44.1144ZM71.2886 60.1319C71.2859 60.1339 71.2827 60.1353 71.2797 60.1361C71.2769 60.1368 71.2749 60.1368 71.2737 60.1367C71.2719 60.1366 71.2714 60.1361 71.2712 60.1359L71.6122 59.7702C71.4506 59.6195 71.1931 59.5849 70.9969 59.7258L71.2886 60.1319ZM74.1837 56.3085C74.0568 56.5139 74.1093 56.7684 74.2709 56.9191L74.6119 56.5534C74.6121 56.5536 74.6127 56.5541 74.6129 56.5559C74.6131 56.557 74.6133 56.5591 74.6127 56.5619C74.6121 56.5649 74.6109 56.5682 74.6091 56.5711L74.1837 56.3085Z" fill="#798290"/>
</svg>