<?xml version="1.0" encoding="UTF-8"?>
<svg width="203" height="203" viewBox="0 0 203 203" version="1.1" xmlns="http://www.w3.org/2000/svg" xmlns:xlink="http://www.w3.org/1999/xlink">
    <g id="BTCwallet" stroke="none" stroke-width="1" fill="none" fill-rule="evenodd">
        <g id="copy-2" transform="translate(0.625000, 0.000000)">
            <polygon id="Fill-1" fill="#FFD815" points="148.534722 79.0699816 135.309028 65.8066298 122.083333 79.0699816 135.309028 92.3333333 148.534722 105.596685 161.760417 92.3333333"></polygon>
            <polygon id="Fill-2" fill="#FF9813" points="148.789062 0 135.817708 13.0082873 148.789062 26.0165746 161.760417 13.0082873"></polygon>
            <polygon id="Fill-3" fill="#FF9813" points="199.911458 52.7983425 186.940104 39.7900552 173.96875 52.7983425 186.940104 65.8066298"></polygon>
            <polygon id="Fill-4" fill="#FF9813" points="122.083333 158.395028 135.054687 171.403315 148.026042 158.395028 135.054687 145.38674"></polygon>
            <polygon id="Fill-5" fill="#FF9813" points="32.046875 66.5718232 45.0182292 79.5801105 57.9895833 66.5718232 45.0182292 53.5635359"></polygon>
            <polygon id="Fill-6" fill="#FF9813" points="96.9040944 0 83.9322917 13.0082873 96.9040944 26.0165746 109.875 13.0082873"></polygon>
            <polygon id="Fill-7" fill="#FF9813" points="44.2552083 26.781768 57.2265625 39.7900552 70.1979167 26.781768 57.2265625 13.7734807"></polygon>
            <polygon id="Fill-8" fill="#FF9813" points="186.940104 93.3535912 173.96875 106.361878 186.940104 119.370166 199.911458 106.361878"></polygon>
            <polygon id="Fill-9" fill="#FF9813" points="161.760417 146.151934 174.731771 159.160221 187.703125 146.151934 174.731771 133.143646"></polygon>
            <polygon id="Fill-10" fill="#5B5B72" points="148.715833 105.198142 135.671249 92.1163438 122.626665 105.198142 109.582082 92.1163438 96.537498 79.0345455 109.582082 65.9527472 96.537498 52.8718536 83.4938164 39.7900552 70.4492327 52.8718536 83.4938164 65.9527472 70.4492327 79.0345455 83.4938164 92.1163438 70.4492327 105.198142 63.9264897 98.6576954 50.881906 111.738589 63.9264897 124.820387 50.881906 137.902186 38.4859878 150.334373 26.0891675 162.766559 13.0445837 175.848358 0 188.929251 13.0445837 202.01105 26.0891675 188.929251 39.1337512 175.848358 51.5296694 163.416171 52.178335 162.766559 63.9264897 150.983984 64.5742531 150.334373 76.9710734 137.902186 90.0156572 150.983984 103.060241 137.902186 96.537498 131.361739 109.582082 118.27994 122.626665 131.361739 135.671249 118.27994 148.715833 131.361739 161.760417 118.27994"></polygon>
            <polygon id="Fill-11" fill="#FF9813" points="148.636458 52.9515633 135.5125 39.7900552 122.388542 52.9515633 109.264583 39.7900552 96.140625 52.9515633 109.264583 66.1130713 96.140625 79.2745793 109.264583 92.4360873 122.388542 105.596685 135.5125 92.4360873 122.388542 79.2745793 135.5125 66.1130713 148.636458 79.2745793 161.760417 66.1130713"></polygon>
        </g>
    </g>
</svg>